<mxfile host="app.diagrams.net" modified="2023-04-05T18:20:30.800Z" agent="Mozilla/5.0 (Windows NT 10.0; Win64; x64) AppleWebKit/537.36 (KHTML, like Gecko) Chrome/111.0.0.0 Safari/537.36" etag="Ei4ckpD3Uxe1lQpmbI0a" version="21.1.1" type="device">
  <diagram name="EsquemaTabelaDeRotinasAdministrativasSalaoReino" id="_x233iuwQzVazmD13Ijn">
    <mxGraphModel dx="2901" dy="796" grid="1" gridSize="10" guides="1" tooltips="1" connect="1" arrows="1" fold="1" page="1" pageScale="1" pageWidth="827" pageHeight="1169" math="0" shadow="0">
      <root>
        <mxCell id="0" />
        <mxCell id="1" parent="0" />
        <mxCell id="aipEhhx3BtnkN3EJ-F2V-2" value="&lt;b&gt;Administração&lt;br&gt;Teocratica&lt;br&gt;Salao Reino&lt;/b&gt;" style="rounded=0;whiteSpace=wrap;html=1;" vertex="1" parent="1">
          <mxGeometry x="-320" y="70" width="140" height="80" as="geometry" />
        </mxCell>
        <mxCell id="aipEhhx3BtnkN3EJ-F2V-47" style="edgeStyle=orthogonalEdgeStyle;rounded=0;orthogonalLoop=1;jettySize=auto;html=1;entryX=0;entryY=0.5;entryDx=0;entryDy=0;" edge="1" parent="1" source="aipEhhx3BtnkN3EJ-F2V-3" target="aipEhhx3BtnkN3EJ-F2V-2">
          <mxGeometry relative="1" as="geometry">
            <Array as="points">
              <mxPoint x="-520" y="110" />
            </Array>
          </mxGeometry>
        </mxCell>
        <mxCell id="aipEhhx3BtnkN3EJ-F2V-3" value="&lt;b&gt;Reunião Publica EstudoSentinela&lt;/b&gt;" style="rounded=0;whiteSpace=wrap;html=1;" vertex="1" parent="1">
          <mxGeometry x="-590" y="320" width="140" height="80" as="geometry" />
        </mxCell>
        <mxCell id="aipEhhx3BtnkN3EJ-F2V-46" style="edgeStyle=orthogonalEdgeStyle;rounded=0;orthogonalLoop=1;jettySize=auto;html=1;entryX=0.5;entryY=1;entryDx=0;entryDy=0;" edge="1" parent="1" source="aipEhhx3BtnkN3EJ-F2V-5" target="aipEhhx3BtnkN3EJ-F2V-2">
          <mxGeometry relative="1" as="geometry" />
        </mxCell>
        <mxCell id="aipEhhx3BtnkN3EJ-F2V-5" value="&lt;b&gt;Reunião Vida&lt;br&gt;MinisterioCristao&lt;/b&gt;" style="rounded=0;whiteSpace=wrap;html=1;" vertex="1" parent="1">
          <mxGeometry x="-320" y="320" width="140" height="80" as="geometry" />
        </mxCell>
        <mxCell id="aipEhhx3BtnkN3EJ-F2V-14" value="LeitorSentinela&amp;nbsp;&amp;nbsp;" style="text;html=1;strokeColor=none;fillColor=none;align=center;verticalAlign=middle;whiteSpace=wrap;rounded=0;" vertex="1" parent="1">
          <mxGeometry x="-700" y="400" width="100" height="30" as="geometry" />
        </mxCell>
        <mxCell id="aipEhhx3BtnkN3EJ-F2V-15" value="LeitorEstudoLivroCongregacao" style="text;html=1;strokeColor=none;fillColor=none;align=center;verticalAlign=middle;whiteSpace=wrap;rounded=0;" vertex="1" parent="1">
          <mxGeometry x="245" y="550" width="160" height="30" as="geometry" />
        </mxCell>
        <mxCell id="aipEhhx3BtnkN3EJ-F2V-16" value="TesourosPalavraDeus" style="text;html=1;strokeColor=none;fillColor=none;align=center;verticalAlign=middle;whiteSpace=wrap;rounded=0;" vertex="1" parent="1">
          <mxGeometry x="230" y="230" width="130" height="30" as="geometry" />
        </mxCell>
        <mxCell id="aipEhhx3BtnkN3EJ-F2V-17" value="JoiasEspirituais" style="text;html=1;strokeColor=none;fillColor=none;align=center;verticalAlign=middle;whiteSpace=wrap;rounded=0;" vertex="1" parent="1">
          <mxGeometry x="240" y="260" width="90" height="30" as="geometry" />
        </mxCell>
        <mxCell id="aipEhhx3BtnkN3EJ-F2V-18" value="LeitorBibliaVidaMinisterio" style="text;html=1;strokeColor=none;fillColor=none;align=center;verticalAlign=middle;whiteSpace=wrap;rounded=0;" vertex="1" parent="1">
          <mxGeometry x="240" y="290" width="130" height="30" as="geometry" />
        </mxCell>
        <mxCell id="aipEhhx3BtnkN3EJ-F2V-19" value="DiregenteSentinela" style="text;html=1;strokeColor=none;fillColor=none;align=center;verticalAlign=middle;whiteSpace=wrap;rounded=0;" vertex="1" parent="1">
          <mxGeometry x="-730" y="380" width="130" height="30" as="geometry" />
        </mxCell>
        <mxCell id="aipEhhx3BtnkN3EJ-F2V-21" value="OradorDiscursoPublico" style="text;html=1;strokeColor=none;fillColor=none;align=center;verticalAlign=middle;whiteSpace=wrap;rounded=0;" vertex="1" parent="1">
          <mxGeometry x="-740" y="355" width="130" height="30" as="geometry" />
        </mxCell>
        <mxCell id="aipEhhx3BtnkN3EJ-F2V-48" style="edgeStyle=orthogonalEdgeStyle;rounded=0;orthogonalLoop=1;jettySize=auto;html=1;entryX=0.25;entryY=0;entryDx=0;entryDy=0;" edge="1" parent="1" source="aipEhhx3BtnkN3EJ-F2V-22" target="aipEhhx3BtnkN3EJ-F2V-3">
          <mxGeometry relative="1" as="geometry" />
        </mxCell>
        <mxCell id="aipEhhx3BtnkN3EJ-F2V-22" value="PresidenteReuniaoPublica" style="text;html=1;strokeColor=none;fillColor=none;align=center;verticalAlign=middle;whiteSpace=wrap;rounded=0;" vertex="1" parent="1">
          <mxGeometry x="-760" y="280" width="150" height="30" as="geometry" />
        </mxCell>
        <mxCell id="aipEhhx3BtnkN3EJ-F2V-35" style="edgeStyle=orthogonalEdgeStyle;rounded=0;orthogonalLoop=1;jettySize=auto;html=1;entryX=0.5;entryY=1;entryDx=0;entryDy=0;" edge="1" parent="1" source="aipEhhx3BtnkN3EJ-F2V-23" target="aipEhhx3BtnkN3EJ-F2V-5">
          <mxGeometry relative="1" as="geometry" />
        </mxCell>
        <mxCell id="aipEhhx3BtnkN3EJ-F2V-23" value="PresidenteReuniaoVidaMinisterioCristao" style="text;html=1;strokeColor=none;fillColor=none;align=center;verticalAlign=middle;whiteSpace=wrap;rounded=0;" vertex="1" parent="1">
          <mxGeometry x="-355" y="470" width="210" height="30" as="geometry" />
        </mxCell>
        <mxCell id="aipEhhx3BtnkN3EJ-F2V-25" value="PrimeiroEstudante" style="text;html=1;strokeColor=none;fillColor=none;align=center;verticalAlign=middle;whiteSpace=wrap;rounded=0;" vertex="1" parent="1">
          <mxGeometry x="225" y="355" width="130" height="30" as="geometry" />
        </mxCell>
        <mxCell id="aipEhhx3BtnkN3EJ-F2V-26" value="SegundoEstudante" style="text;html=1;strokeColor=none;fillColor=none;align=center;verticalAlign=middle;whiteSpace=wrap;rounded=0;" vertex="1" parent="1">
          <mxGeometry x="225" y="380" width="130" height="30" as="geometry" />
        </mxCell>
        <mxCell id="aipEhhx3BtnkN3EJ-F2V-27" value="TerceiroEstudanteDiscurso" style="text;html=1;strokeColor=none;fillColor=none;align=center;verticalAlign=middle;whiteSpace=wrap;rounded=0;" vertex="1" parent="1">
          <mxGeometry x="235" y="415" width="150" height="30" as="geometry" />
        </mxCell>
        <mxCell id="aipEhhx3BtnkN3EJ-F2V-28" value="DiregenteEstudoDeLivro" style="text;html=1;strokeColor=none;fillColor=none;align=center;verticalAlign=middle;whiteSpace=wrap;rounded=0;" vertex="1" parent="1">
          <mxGeometry x="245" y="530" width="130" height="30" as="geometry" />
        </mxCell>
        <mxCell id="aipEhhx3BtnkN3EJ-F2V-32" style="edgeStyle=orthogonalEdgeStyle;rounded=0;orthogonalLoop=1;jettySize=auto;html=1;entryX=1;entryY=0.25;entryDx=0;entryDy=0;" edge="1" parent="1" source="aipEhhx3BtnkN3EJ-F2V-29" target="aipEhhx3BtnkN3EJ-F2V-5">
          <mxGeometry relative="1" as="geometry" />
        </mxCell>
        <mxCell id="aipEhhx3BtnkN3EJ-F2V-29" value="&lt;b&gt;Tesouros DaPalavradeDeus&lt;/b&gt;" style="rounded=0;whiteSpace=wrap;html=1;" vertex="1" parent="1">
          <mxGeometry x="40" y="230" width="140" height="80" as="geometry" />
        </mxCell>
        <mxCell id="aipEhhx3BtnkN3EJ-F2V-33" style="edgeStyle=orthogonalEdgeStyle;rounded=0;orthogonalLoop=1;jettySize=auto;html=1;entryX=1;entryY=0.5;entryDx=0;entryDy=0;" edge="1" parent="1" source="aipEhhx3BtnkN3EJ-F2V-30" target="aipEhhx3BtnkN3EJ-F2V-5">
          <mxGeometry relative="1" as="geometry">
            <Array as="points">
              <mxPoint x="-30" y="400" />
              <mxPoint x="-30" y="360" />
            </Array>
          </mxGeometry>
        </mxCell>
        <mxCell id="aipEhhx3BtnkN3EJ-F2V-30" value="&lt;b&gt;FacaSeu&lt;br&gt;MelhorNoMinisterio&lt;/b&gt;" style="rounded=0;whiteSpace=wrap;html=1;" vertex="1" parent="1">
          <mxGeometry x="40" y="360" width="140" height="80" as="geometry" />
        </mxCell>
        <mxCell id="aipEhhx3BtnkN3EJ-F2V-34" style="edgeStyle=orthogonalEdgeStyle;rounded=0;orthogonalLoop=1;jettySize=auto;html=1;entryX=1;entryY=0.75;entryDx=0;entryDy=0;" edge="1" parent="1" source="aipEhhx3BtnkN3EJ-F2V-31" target="aipEhhx3BtnkN3EJ-F2V-5">
          <mxGeometry relative="1" as="geometry" />
        </mxCell>
        <mxCell id="aipEhhx3BtnkN3EJ-F2V-31" value="&lt;b&gt;NossaVida&lt;br&gt;&lt;/b&gt;EMinisterioCristao" style="rounded=0;whiteSpace=wrap;html=1;" vertex="1" parent="1">
          <mxGeometry x="40" y="490" width="140" height="80" as="geometry" />
        </mxCell>
        <mxCell id="aipEhhx3BtnkN3EJ-F2V-36" value="Discurso10min" style="text;html=1;strokeColor=none;fillColor=none;align=center;verticalAlign=middle;whiteSpace=wrap;rounded=0;" vertex="1" parent="1">
          <mxGeometry x="245" y="480" width="130" height="30" as="geometry" />
        </mxCell>
        <mxCell id="aipEhhx3BtnkN3EJ-F2V-37" value="NecessidadeLocal" style="text;html=1;strokeColor=none;fillColor=none;align=center;verticalAlign=middle;whiteSpace=wrap;rounded=0;" vertex="1" parent="1">
          <mxGeometry x="245" y="500" width="130" height="30" as="geometry" />
        </mxCell>
        <mxCell id="aipEhhx3BtnkN3EJ-F2V-38" value="MicrofoneVolante" style="text;html=1;strokeColor=none;fillColor=none;align=center;verticalAlign=middle;whiteSpace=wrap;rounded=0;" vertex="1" parent="1">
          <mxGeometry x="-440" y="710" width="100" height="30" as="geometry" />
        </mxCell>
        <mxCell id="aipEhhx3BtnkN3EJ-F2V-39" value="OperadorSom" style="text;html=1;strokeColor=none;fillColor=none;align=center;verticalAlign=middle;whiteSpace=wrap;rounded=0;" vertex="1" parent="1">
          <mxGeometry x="-440" y="730" width="100" height="30" as="geometry" />
        </mxCell>
        <mxCell id="aipEhhx3BtnkN3EJ-F2V-40" value="PioneirosRegulares" style="text;html=1;strokeColor=none;fillColor=none;align=center;verticalAlign=middle;whiteSpace=wrap;rounded=0;" vertex="1" parent="1">
          <mxGeometry x="-420" y="750" width="60" height="30" as="geometry" />
        </mxCell>
        <mxCell id="aipEhhx3BtnkN3EJ-F2V-41" value="ServoPublicacao" style="text;html=1;strokeColor=none;fillColor=none;align=center;verticalAlign=middle;whiteSpace=wrap;rounded=0;" vertex="1" parent="1">
          <mxGeometry x="-455" y="770" width="130" height="30" as="geometry" />
        </mxCell>
        <mxCell id="aipEhhx3BtnkN3EJ-F2V-42" value="PioneirosAuxiliar" style="text;html=1;strokeColor=none;fillColor=none;align=center;verticalAlign=middle;whiteSpace=wrap;rounded=0;" vertex="1" parent="1">
          <mxGeometry x="-420" y="790" width="60" height="30" as="geometry" />
        </mxCell>
        <mxCell id="aipEhhx3BtnkN3EJ-F2V-44" style="edgeStyle=orthogonalEdgeStyle;rounded=0;orthogonalLoop=1;jettySize=auto;html=1;entryX=0;entryY=0.5;entryDx=0;entryDy=0;" edge="1" parent="1" source="aipEhhx3BtnkN3EJ-F2V-43" target="aipEhhx3BtnkN3EJ-F2V-5">
          <mxGeometry relative="1" as="geometry" />
        </mxCell>
        <mxCell id="aipEhhx3BtnkN3EJ-F2V-45" style="edgeStyle=orthogonalEdgeStyle;rounded=0;orthogonalLoop=1;jettySize=auto;html=1;entryX=0.436;entryY=1.038;entryDx=0;entryDy=0;entryPerimeter=0;" edge="1" parent="1" source="aipEhhx3BtnkN3EJ-F2V-43" target="aipEhhx3BtnkN3EJ-F2V-3">
          <mxGeometry relative="1" as="geometry">
            <Array as="points">
              <mxPoint x="-529" y="650" />
            </Array>
          </mxGeometry>
        </mxCell>
        <mxCell id="aipEhhx3BtnkN3EJ-F2V-43" value="&lt;b&gt;Cadastro&lt;br&gt;DesignacoesGerais&lt;/b&gt;" style="rounded=0;whiteSpace=wrap;html=1;" vertex="1" parent="1">
          <mxGeometry x="-460" y="610" width="140" height="80" as="geometry" />
        </mxCell>
        <mxCell id="aipEhhx3BtnkN3EJ-F2V-49" value="Indicador" style="text;html=1;strokeColor=none;fillColor=none;align=center;verticalAlign=middle;whiteSpace=wrap;rounded=0;" vertex="1" parent="1">
          <mxGeometry x="-420" y="810" width="60" height="30" as="geometry" />
        </mxCell>
      </root>
    </mxGraphModel>
  </diagram>
</mxfile>
